<svg id="Layer_1" height="512" viewBox="0 0 512 512" width="512" xmlns="http://www.w3.org/2000/svg" data-name="Layer 1"><g fill="#d1e7ff"><path d="m168.12 170.109a6.792 6.792 0 0 0 3.441 5.974l.031.018.031.018a6.79 6.79 0 0 0 6.824 0l.049-.029 26.629-15.366a6.9 6.9 0 0 0 -.009-11.963l-26.629-15.361a6.681 6.681 0 0 0 -6.892 0 6.876 6.876 0 0 0 -3.475 5.993z" fill-rule="evenodd"/><path d="m158.09 271.346a16.039 16.039 0 1 1 16.025-16.075 16.049 16.049 0 0 1 -16.025 16.075z" fill-rule="evenodd"/><path d="m142.058 123.242h83.532v63.085h-83.532z"/><path d="m475 336v-251.339a9.006 9.006 0 0 0 -9-9h-420a9.015 9.015 0 0 0 -9 9v251.339a8.955 8.955 0 0 0 9 8.931h420a8.946 8.946 0 0 0 9-8.931zm-132.91-103.1-13.432 13.432 13.432 13.432a6.007 6.007 0 0 1 0 8.5 6.1 6.1 0 0 1 -8.481 0l-13.432-13.431-13.438 13.431a6 6 0 0 1 -8.481-8.5l13.432-13.432-13.432-13.432a6.033 6.033 0 0 1 0-8.5 5.968 5.968 0 0 1 8.481 0l13.438 13.432 13.432-13.432a6 6 0 0 1 8.481 8.5zm-66.151-48.3v49.6a27.122 27.122 0 0 1 -27.106 27.078h-65.416a26.007 26.007 0 1 1 0-12h65.416a15.079 15.079 0 0 0 15.1-15.075v-49.591a27.136 27.136 0 0 1 27.1-27.149h68.416l-14.125-14.074a6.009 6.009 0 0 1 8.5-8.5l24.355 24.362a6.019 6.019 0 0 1 0 8.5l-24.369 24.363a6 6 0 0 1 -8.481-8.5l14.125-14.146h-68.419a15.139 15.139 0 0 0 -15.1 15.146zm-40.353-59.656v59.585a11.769 11.769 0 0 1 -11.731 11.788h-80.068a11.77 11.77 0 0 1 -11.732-11.788v-59.573a11.709 11.709 0 0 1 11.732-11.717h80.068a11.708 11.708 0 0 1 11.731 11.717zm229.414-39.283v249.339h-418v-249.339zm-164.856 45.439-13.424 13.432a5.944 5.944 0 0 1 -8.5 0 5.947 5.947 0 0 1 0-8.431l13.432-13.432-13.432-13.431a6.009 6.009 0 1 1 8.5-8.5l13.424 13.431 13.432-13.431a6 6 0 1 1 8.481 8.5l-13.425 13.431 13.425 13.431a5.923 5.923 0 0 1 0 8.431 5.927 5.927 0 0 1 -8.481 0zm-67.972 153.464-13.447 13.436 13.447 13.432a6.033 6.033 0 0 1 0 8.5 6.117 6.117 0 0 1 -8.5 0l-13.42-13.432-13.432 13.429a6.009 6.009 0 1 1 -8.494-8.5l13.438-13.429-13.438-13.431a6.031 6.031 0 0 1 0-8.5 6.117 6.117 0 0 1 8.494 0l13.432 13.432 13.425-13.432a6.119 6.119 0 0 1 8.5 0 6.033 6.033 0 0 1 -.005 8.495z" fill-rule="evenodd"/><path d="m502 362.082a27.335 27.335 0 0 1 -27.291 27.291h-437.418a27.33 27.33 0 0 1 -27.291-27.291v-286.138a27.33 27.33 0 0 1 27.291-27.291h437.415a27.335 27.335 0 0 1 27.294 27.291zm-159.91-129.173a6 6 0 0 0 -8.481-8.5l-13.432 13.432-13.438-13.432a5.968 5.968 0 0 0 -8.481 0 6.033 6.033 0 0 0 0 8.5l13.432 13.432-13.432 13.432a6 6 0 0 0 8.481 8.5l13.438-13.431 13.432 13.431a6 6 0 0 0 8.481-8.5l-13.432-13.432zm-66.151-48.3a15.139 15.139 0 0 1 15.1-15.146h68.416l-14.125 14.146a6 6 0 0 0 8.481 8.5l24.369-24.363a6.019 6.019 0 0 0 0-8.5l-24.355-24.362a6.009 6.009 0 0 0 -8.5 8.5l14.125 14.074h-68.415a27.136 27.136 0 0 0 -27.1 27.149v49.593a15.079 15.079 0 0 1 -15.1 15.075h-65.418a26.078 26.078 0 1 0 0 12h65.416a27.122 27.122 0 0 0 27.106-27.075v-49.588zm-40.353-59.656a11.708 11.708 0 0 0 -11.731-11.717h-80.068a11.709 11.709 0 0 0 -11.732 11.717v59.585a11.77 11.77 0 0 0 11.732 11.788h80.068a11.769 11.769 0 0 0 11.731-11.788v-59.582zm229.414-39.292h-418v249.339h418zm-164.856 45.439 13.432 13.432a5.927 5.927 0 0 0 8.481 0 5.923 5.923 0 0 0 0-8.431l-13.425-13.432 13.425-13.431a6 6 0 1 0 -8.481-8.5l-13.432 13.431-13.424-13.433a6.009 6.009 0 1 0 -8.5 8.5l13.432 13.431-13.427 13.433a5.947 5.947 0 0 0 0 8.431 5.944 5.944 0 0 0 8.5 0zm-67.972 153.464a6.033 6.033 0 0 0 0-8.5 6.119 6.119 0 0 0 -8.5 0l-13.425 13.432-13.427-13.434a6.117 6.117 0 0 0 -8.494 0 6.031 6.031 0 0 0 0 8.5l13.438 13.438-13.438 13.432a6.009 6.009 0 0 0 8.494 8.5l13.432-13.432 13.425 13.432a6.009 6.009 0 0 0 8.5-8.5l-13.452-13.432z" fill-rule="evenodd"/><path d="m291.62 397.377v6a45.628 45.628 0 0 0 20.386 38.717l30.966 21.225h-173.946l30.958-21.225a45.625 45.625 0 0 0 20.393-38.717v-6z" fill-rule="evenodd"/></g><path d="m278.225 136.1 13.432-13.432-13.432-13.431a6.009 6.009 0 1 1 8.5-8.5l13.424 13.431 13.432-13.431a6 6 0 1 1 8.481 8.5l-13.425 13.431 13.42 13.432a5.923 5.923 0 0 1 0 8.431 5.927 5.927 0 0 1 -8.481 0l-13.432-13.431-13.424 13.432a5.944 5.944 0 0 1 -8.5 0 5.947 5.947 0 0 1 0-8.431zm-46.053 148.464-13.447 13.436 13.447 13.432a6.033 6.033 0 0 1 0 8.5 6.117 6.117 0 0 1 -8.5 0l-13.42-13.432-13.432 13.429a6.009 6.009 0 1 1 -8.494-8.5l13.438-13.429-13.438-13.431a6.031 6.031 0 0 1 0-8.5 6.117 6.117 0 0 1 8.494 0l13.432 13.432 13.425-13.432a6.119 6.119 0 0 1 8.5 0 6.033 6.033 0 0 1 0 8.5zm109.918-51.655-13.432 13.432 13.432 13.432a6.007 6.007 0 0 1 0 8.5 6.1 6.1 0 0 1 -8.481 0l-13.432-13.431-13.438 13.431a6 6 0 0 1 -8.481-8.5l13.432-13.432-13.432-13.432a6.033 6.033 0 0 1 0-8.5 5.968 5.968 0 0 1 8.481 0l13.438 13.432 13.432-13.432a6 6 0 0 1 8.481 8.5zm-163.974-68.159v-20l17.376 10zm28-17.718-26.62-15.36a8.676 8.676 0 0 0 -8.916 0 8.872 8.872 0 0 0 -4.459 7.715v30.722a8.79 8.79 0 0 0 4.459 7.716 8.786 8.786 0 0 0 8.916 0l26.62-15.361a8.9 8.9 0 0 0 0-15.432zm-62.057-21.791v59.086h79.533v-59.086zm-.271 71.088h80.068a11.769 11.769 0 0 0 11.731-11.788v-59.585a11.708 11.708 0 0 0 -11.731-11.717h-80.069a11.709 11.709 0 0 0 -11.732 11.717v59.585a11.77 11.77 0 0 0 11.732 11.788zm14.3 73.017a14.039 14.039 0 1 1 14.025-14.075 14.047 14.047 0 0 1 -14.025 14.075zm195.733-134.459a6.009 6.009 0 0 0 -8.5 8.5l14.125 14.074h-68.411a27.136 27.136 0 0 0 -27.1 27.149v49.59a15.079 15.079 0 0 1 -15.1 15.075h-65.418a26.078 26.078 0 1 0 0 12h65.416a27.122 27.122 0 0 0 27.106-27.075v-49.588a15.139 15.139 0 0 1 15.1-15.146h68.416l-14.125 14.146a6 6 0 0 0 8.481 8.5l24.369-24.363a6.019 6.019 0 0 0 0-8.5l-24.355-24.362zm-306.821-49.226v249.339h418v-249.339zm-1 261.274h420a10.947 10.947 0 0 0 11-10.935v-251.339a11.008 11.008 0 0 0 -11-11h-420a11.017 11.017 0 0 0 -11 11v251.339a10.955 10.955 0 0 0 11 10.931zm-34-270.991v286.138a25.33 25.33 0 0 0 25.292 25.292h437.414a25.334 25.334 0 0 0 25.294-25.292v-286.138a25.333 25.333 0 0 0 -25.292-25.291h-437.417a25.329 25.329 0 0 0 -25.291 25.291zm298.876 367.8 25.642 17.575h-161.038l25.634-17.575a47.671 47.671 0 0 0 21.262-40.367v-4h67.245v4a47.7 47.7 0 0 0 21.254 40.367zm-273.585-44.368h173.09v4a36.077 36.077 0 0 1 -16.054 30.507l-31.2 21.362a9.9 9.9 0 0 0 5.6 18.076h174.542a9.9 9.9 0 0 0 5.6-18.076l-31.2-21.362a36.077 36.077 0 0 1 -16.054-30.507v-4h173.09a37.33 37.33 0 0 0 37.295-37.294v-286.138a37.33 37.33 0 0 0 -37.294-37.294h-437.415a37.331 37.331 0 0 0 -37.291 37.294v286.138a37.331 37.331 0 0 0 37.291 37.294z" fill="#2e58ff" fill-rule="evenodd"/></svg>