<?xml version="1.0" encoding="UTF-8" standalone="no"?>
<svg
   id="Layer_1"
   data-name="Layer 1"
   viewBox="0 0 634.73258 181.33417"
   version="1.1"
   width="634.7326"
   height="181.33417"
   xmlns="http://www.w3.org/2000/svg"
   xmlns:svg="http://www.w3.org/2000/svg">
  <defs
     id="defs51">
    <rect
       x="275.40324"
       y="26.9155"
       width="127.84863"
       height="116.31341"
       id="rect1515" />
    <style
       id="style49">.cls-1{fill:#85d0e3;}.cls-2{fill:#263248;}.cls-3{fill:#f4981d;}.cls-4{fill:#29235c;}.cls-5{fill:#395065;}.cls-6{fill:#009ee2;}.cls-7{fill:#268cac;}</style>
  </defs>
  <path
     class="cls-1"
     d="m 56.724945,101.83878 c 8.88,13.55 27.38,13.81 36.45,0 7.690005,7.62 15.530005,15.1 23.000005,22.9 a 15.67,15.67 0 0 1 -7.39,26.04 c -5.91,1.49 -11.270005,-0.18 -15.670005,-4.65 -5.51,-5.61 -11.15,-11.11 -16.68,-16.71 -1.15,-1.16 -1.84,-0.81 -2.83,0.19 q -23.07,23.31 -46.17,46.58 a 15.81,15.81 0 0 1 -15.47,4.67 c -7.6299996,-1.63 -12.68999956,-9.1 -11.87999956,-16.88 0.49,-4.7 3.06999996,-8.11 6.22999996,-11.29 q 24.4199996,-24.57 48.8099996,-49.2 z"
     id="path81"
     style="display:inline;stroke-width:0;stroke-dasharray:none" />
  <path
     class="cls-2"
     d="m 86.364945,108.58878 c 13.55,-8.889997 13.810005,-27.379997 0,-36.449997 7.63,-7.7 15.100005,-15.54 22.910005,-23 a 15.66,15.66 0 0 1 26,7.42 c 1.49,5.91 -0.17,11.27 -4.65,15.67 -5.61,5.52 -11.11,11.15 -16.7,16.68 -1.17,1.15 -0.82,1.85 0.18,2.84 q 23.31,23.059997 46.58,46.159997 a 15.83,15.83 0 0 1 4.68,15.47 15.56,15.56 0 0 1 -16.89,11.88 c -4.69,-0.49 -8.1,-3.06 -11.29,-6.22 q -24.52,-24.47 -49.160005,-48.86 c -0.5,-0.5 -1.03,-0.99 -1.66,-1.59 z"
     id="path85"
     style="display:inline" />
  <path
     class="cls-7"
     d="m 93.314945,79.328783 c -8.83,-13.58 -27.33,-13.92 -36.45,-0.14 -7.66,-7.66 -15.48,-15.16 -22.95,-23 a 15.67,15.67 0 0 1 7.52,-26 c 5.92,-1.47 11.28,0.22 15.66,4.71 5.49,5.63 11.11,11.15 16.62,16.77 1.14,1.16 1.83,0.82 2.83,-0.18 q 23.14,-23.22 46.340005,-46.3900001 a 15.81,15.81 0 0 1 15.49,-4.62000001 c 7.63,1.66000001 12.66,9.15000001 11.82,16.93000011 -0.51,4.69 -3.1,8.09 -6.27,11.26 q -24.52,24.48 -49.000005,49 c -0.51,0.51 -1,1.03 -1.61,1.66 z"
     id="path89"
     style="display:inline" />
  <path
     class="cls-3"
     d="m 86.784945,90.688783 a 11.37,11.37 0 0 1 -22.73,0.43 11.37,11.37 0 1 1 22.73,-0.43 z"
     id="path91" />
  <g
     id="layer1"
     transform="translate(-0.00505456,0.01878289)"
     style="display:none">
    <text
       xml:space="preserve"
       style="font-style:normal;font-variant:normal;font-weight:normal;font-stretch:normal;font-size:146.667px;line-height:1.25;font-family:'Hero New Bold';-inkscape-font-specification:'Hero New Bold, ';letter-spacing:-9px;display:inline;fill:#000000;fill-opacity:1;stroke:none"
       x="156.44635"
       y="138.66289"
       id="text1040"><tspan
         id="tspan1038"
         x="156.44635"
         y="138.66289"
         style="font-style:normal;font-variant:normal;font-weight:normal;font-stretch:normal;font-size:146.667px;font-family:'Hero New Bold';-inkscape-font-specification:'Hero New Bold, ';fill:#1d8397;fill-opacity:1">be</tspan></text>
  </g>
  <g
     id="g862"
     transform="translate(-0.00505456,0.01878289)"
     style="display:inline">
    <g
       aria-label="be"
       id="text860"
       style="font-size:146.667px;line-height:1.25;font-family:'Hero New Bold';-inkscape-font-specification:'Hero New Bold, ';letter-spacing:-9px;display:inline">
      <path
         d="M 189.73976,20.889281 H 166.27304 V 138.66289 h 19.65338 l 2.34667,-12.4667 c 5.28001,8.50669 14.6667,14.52004 26.40006,14.52004 18.92005,0 36.52009,-16.72004 36.52009,-42.680103 0,-25.960061 -16.72004,-42.6801 -35.64009,-42.6801 -10.56002,0 -20.82671,5.573347 -25.81339,13.933366 z m 18.48004,55.586795 c 11.1467,0 19.21338,9.240022 19.21338,21.706718 0,12.466696 -8.06668,21.413386 -19.06671,21.413386 -11.00002,0 -18.92004,-8.80002 -18.92004,-21.560053 0,-12.613363 7.92002,-21.560051 18.77337,-21.560051 z"
         style="fill:#1d8397"
         id="path864" />
      <path
         d="m 331.36686,96.716123 c 0,-27.133396 -16.8667,-41.360096 -37.54675,-41.360096 -22.58672,0 -40.77343,17.16004 -40.77343,42.973434 0,24.640059 16.42671,42.386769 45.02677,42.386769 10.41336,0 19.94672,-2.49334 28.30674,-7.33335 V 114.1695 c -7.77336,4.98668 -16.42671,8.06668 -25.3734,8.06668 -12.32003,0 -22.44005,-6.01334 -25.52006,-17.60004 h 55.29347 c 0.44,-2.34667 0.58666,-4.986676 0.58666,-7.920017 z m -56.32013,-6.160014 c 2.20001,-10.26669 9.82669,-16.720039 18.62671,-16.720039 8.65336,0 15.25337,6.160015 15.40004,16.720039 z"
         style="fill:#1d8397"
         id="path866" />
    </g>
  </g>
  <g
     id="g3242"
     transform="translate(-0.00505456,0.01878289)"
     style="display:inline">
    <g
       aria-label="BeSlick"
       id="text3240"
       style="font-size:146.667px;line-height:1.25;letter-spacing:-9px;display:inline">
      <path
         d="m 373.29698,26.902628 c -23.61338,0 -38.72009,13.640032 -38.72009,32.706743 0,19.506712 16.13337,26.693395 29.62674,32.266741 11.88003,4.840011 19.50671,8.360018 19.50671,15.693368 0,7.48002 -7.18668,12.4667 -18.04004,12.4667 -11.29336,0 -23.17339,-5.13335 -30.80007,-12.0267 v 23.17339 c 7.33335,5.42668 19.50671,9.82669 33.14674,9.82669 24.20006,0 40.18676,-13.7867 40.18676,-34.32008 0,-20.826715 -17.01337,-27.720064 -32.56007,-33.880079 -11.44003,-4.693344 -17.45338,-7.626684 -17.45338,-14.080032 0,-6.89335 6.74668,-10.706692 16.42671,-10.706692 9.09335,0 19.94671,3.226674 27.13339,8.360019 V 34.382645 c -7.33335,-4.253343 -17.3067,-7.480017 -28.4534,-7.480017 z"
         style="fill:#263248"
         id="path3248" />
      <path
         d="m 414.897,138.66289 h 23.46672 V 20.889281 H 414.897 Z"
         style="fill:#263248"
         id="path3250" />
      <path
         style="fill:#263248"
         d="m 449.16379,138.66289 h 23.46672 V 57.409365 h -23.46672 z"
         id="path3261" />
      <path
         style="fill:#f4981d;fill-opacity:1"
         d="m 460.89715,46.262673 c 7.04001,0 12.76003,-5.573346 12.76003,-12.76003 0,-7.040016 -5.72002,-12.613362 -12.76003,-12.613362 -7.33335,0 -12.9067,5.573346 -12.9067,12.613362 0,7.186684 5.57335,12.76003 12.9067,12.76003 z"
         id="path3252" />
      <path
         d="m 502.49728,98.036127 c 0,-13.346698 10.26669,-21.560051 22.44005,-21.560051 7.18669,0 13.64004,1.760005 20.38672,6.160015 v -21.56005 c -6.89335,-4.106677 -15.69337,-5.720014 -23.90672,-5.720014 -23.90673,0 -42.6801,17.746708 -42.6801,42.533433 0,25.08006 18.62671,42.82677 42.6801,42.82677 8.65335,0 17.16004,-2.05334 23.90672,-5.57335 v -21.56005 c -6.74668,4.84001 -13.93337,6.01335 -20.38672,6.01335 -12.17336,0 -22.44005,-8.06669 -22.44005,-21.560053 z"
         style="fill:#263248"
         id="path3254" />
      <path
         d="M 634.73768,138.66289 602.03094,96.129455 633.71101,57.409365 H 605.99095 L 576.51088,94.516118 V 20.889281 H 553.04416 V 138.66289 h 23.46672 V 99.35613 l 29.48007,39.30676 z"
         style="display:inline;fill:#263248"
         id="path3256" />
    </g>
  </g>
</svg>
