<svg id="Layer_1" height="512" viewBox="0 0 512 512" width="512" xmlns="http://www.w3.org/2000/svg" data-name="Layer 1"><g fill-rule="evenodd"><g fill="#d1e7ff"><path d="m435.655 61.812a4.007 4.007 0 0 0 -5.655-5.675l-16.229 16.281-16.242-16.28a4 4 0 0 0 -5.644 5.675l16.216 16.2-16.212 16.276a3.921 3.921 0 0 0 -.023 5.585l.025.024.024.025a3.918 3.918 0 0 0 5.587 0l16.269-16.23 16.244 16.222a3.936 3.936 0 0 0 5.614 0l.043-.043a3.931 3.931 0 0 0 -.02-5.587l-16.229-16.272z"/><path d="m338.7 250.927a4.006 4.006 0 1 0 -5.661-5.671l-16.224 16.2-16.238-16.2a4 4 0 1 0 -5.647 5.671l16.224 16.2-16.243 16.3a3.92 3.92 0 0 0 0 5.563l.025.025.024.025a3.919 3.919 0 0 0 5.586 0l16.269-16.231 16.246 16.222a3.934 3.934 0 0 0 5.613 0l.042-.043a3.936 3.936 0 0 0 -.009-5.577l-16.239-16.286z"/><path d="m457.253 195.2a4.007 4.007 0 0 0 -5.658-5.675l-16.227 16.282-16.234-16.282a4.009 4.009 0 0 0 -5.666 5.674l16.24 16.2-16.237 16.277a3.966 3.966 0 0 0 2.835 6.8 4.065 4.065 0 0 0 2.838-1.137l16.224-16.271 16.217 16.271a4.055 4.055 0 0 0 2.844 1.137 3.967 3.967 0 0 0 2.821-6.805l-16.229-16.271z"/><path d="m245.145 70.371a10.159 10.159 0 0 0 -10.174 10.146v64.3a10.22 10.22 0 0 0 10.174 10.217h86.355a10.219 10.219 0 0 0 10.167-10.217v-64.3a10.158 10.158 0 0 0 -10.167-10.146z"/><path d="m464.242 151.188a4.047 4.047 0 0 0 2.826 1.2 4.123 4.123 0 0 0 2.829-1.206l26.272-26.279a4.017 4.017 0 0 0 1.178-2.808 4.176 4.176 0 0 0 -1.178-2.878l-26.277-26.21a3.973 3.973 0 0 0 -5.642-.007 3.924 3.924 0 0 0 -.024 5.587l19.448 19.513h-79.728a26.8 26.8 0 0 0 -26.757 26.722v53.508a18.779 18.779 0 0 1 -18.76 18.789h-72.529l-.348-1.565a25.578 25.578 0 1 0 0 11.134l.348-1.566h72.528a26.812 26.812 0 0 0 26.756-26.792v-53.512a18.763 18.763 0 0 1 18.762-18.718h79.743l-19.445 19.418a3.994 3.994 0 0 0 -.002 5.67z"/><path d="m509.886 324.417.057-8.145a19.007 19.007 0 0 0 -23.162-18.682l-97.315 21.784-.777-1.017a20.887 20.887 0 0 0 -1.81-2.021 18.542 18.542 0 0 0 -13.469-5.623h-107.153a20.137 20.137 0 0 1 -12.587-4.186l-39.97-29.936a37.6 37.6 0 0 0 -23.378-7.817h-79.3v-13.931a9.016 9.016 0 0 0 -9-9h-90.967a9 9 0 0 0 -8.995 9v166.038a9 9 0 0 0 8.995 9h90.964a9.015 9.015 0 0 0 9-9v-9.313l185.081 43.661a65.425 65.425 0 0 0 15.016 1.8 57.017 57.017 0 0 0 31.326-9.4l154.121-99.023a28.492 28.492 0 0 0 13.323-24.189z"/></g><path d="m437.068 63.227-14.817 14.789 14.817 14.861a5.932 5.932 0 0 1 0 8.43 5.934 5.934 0 0 1 -8.487 0l-14.811-14.789-14.825 14.789a5.918 5.918 0 0 1 -8.473 0 5.919 5.919 0 0 1 0-8.43l14.8-14.861-14.8-14.789a6 6 0 1 1 8.473-8.5l14.825 14.859 14.811-14.861a6.007 6.007 0 1 1 8.487 8.5zm-96.951 189.115-14.817 14.789 14.817 14.861a5.933 5.933 0 0 1 0 8.431 5.934 5.934 0 0 1 -8.487 0l-14.811-14.79-14.825 14.79a5.918 5.918 0 0 1 -8.473 0 5.921 5.921 0 0 1 0-8.431l14.81-14.861-14.81-14.789a6 6 0 0 1 8.473-8.5l14.825 14.789 14.811-14.791a6.007 6.007 0 1 1 8.487 8.5zm118.549-55.727-14.817 14.785 14.817 14.861a6.007 6.007 0 0 1 -8.487 8.5l-14.811-14.861-14.818 14.867a6.009 6.009 0 0 1 -8.494-8.5l14.824-14.867-14.824-14.789a6.009 6.009 0 0 1 8.494-8.5l14.818 14.861 14.811-14.861a6.007 6.007 0 1 1 8.487 8.5zm-176.966-72.302v-23.292l20.14 11.646zm30.428-19.576-28.71-16.576a9.141 9.141 0 0 0 -13.718 7.931v33.15a9.086 9.086 0 0 0 4.565 7.931 9.231 9.231 0 0 0 9.152 0l28.708-16.573a9.162 9.162 0 0 0 0-15.86zm19.541-24.22a.169.169 0 0 0 -.165-.143h-86.359c-.085 0-.178.071-.178.143v64.3c0 .072.093.215.178.215h86.355c.079 0 .165-.143.165-.215v-64.3zm-86.524-12.146a12.16 12.16 0 0 0 -12.174 12.146v64.3a12.221 12.221 0 0 0 12.174 12.217h86.355a12.219 12.219 0 0 0 12.167-12.217v-64.3a12.158 12.158 0 0 0 -12.167-12.146zm15.425 168.329a15.611 15.611 0 1 1 15.6-15.575 15.617 15.617 0 0 1 -15.6 15.575zm202.261-84.1a5.919 5.919 0 0 0 8.474 0l26.285-26.292a6.018 6.018 0 0 0 1.757-4.215 6.188 6.188 0 0 0 -1.757-4.287l-26.285-26.22a5.976 5.976 0 1 0 -8.474 8.43l16.025 16.084h-74.909a28.8 28.8 0 0 0 -28.757 28.721v53.509a16.777 16.777 0 0 1 -16.761 16.789h-70.924a27.579 27.579 0 1 0 0 12h70.924a28.814 28.814 0 0 0 28.757-28.792v-53.51a16.763 16.763 0 0 1 16.761-16.717h74.909l-16.025 16a6.008 6.008 0 0 0 0 8.5zm-392.362 236.631a5.573 5.573 0 1 1 -5.551 5.573 5.572 5.572 0 0 1 5.551-5.573zm0 23.148a17.576 17.576 0 1 0 -17.554-17.579 17.616 17.616 0 0 0 17.554 17.575zm420.7-72.159a18.527 18.527 0 0 0 8.723-15.861l.05-8.145a9.011 9.011 0 0 0 -10.96-8.859l-94.6 21.219c.021.429.028.857.021 1.215l-.042 6.787a30.956 30.956 0 0 1 -27.6 30.579l-112.29 12.359a29.772 29.772 0 0 1 -14.353-1.786l-49.918-18.861a6 6 0 1 1 4.244-11.217l49.919 18.861a17.534 17.534 0 0 0 8.787 1.072l112.291-12.36a19 19 0 0 0 16.915-18.723l.043-6.787a8.416 8.416 0 0 0 -2.608-6.358 8.568 8.568 0 0 0 -6.38-2.644h-107.154a30.117 30.117 0 0 1 -18.59-6.216l-39.959-29.935a27.8 27.8 0 0 0 -17.39-5.787h-77.3v123.032l185.364 43.653c14.054 3.358 27.049 1.215 38.659-6.215l154.126-99.023zm-390.15 79.661v-164.038h-88.963v164.038zm410.867-95.451.057-8.145a21.007 21.007 0 0 0 -25.6-20.647l-96.065 21.5a22.25 22.25 0 0 0 -1.979-2.215 20.529 20.529 0 0 0 -14.889-6.216h-107.153a18.188 18.188 0 0 1 -11.388-3.786l-39.969-29.931a39.252 39.252 0 0 0 -24.578-8.216h-77.3v-11.931a11.017 11.017 0 0 0 -11-11h-90.966a11.006 11.006 0 0 0 -11 11v166.038a11.006 11.006 0 0 0 11 11h90.964a11.017 11.017 0 0 0 11-11v-6.787l182.621 43.081a68.872 68.872 0 0 0 15.475 1.858 58.609 58.609 0 0 0 32.407-9.717l154.122-99.023a30.469 30.469 0 0 0 14.241-25.863z" fill="#2e58ff"/></g></svg>