<svg id="Layer_1" height="512" viewBox="0 0 512 512" width="512" xmlns="http://www.w3.org/2000/svg" data-name="Layer 1"><g fill-rule="evenodd"><g fill="#d1e7ff"><path d="m256 67.83a4 4 0 0 0 4-3.994v-24.056a4 4 0 0 0 -8 0v24.056a4 4 0 0 0 4 3.994z"/><path d="m158.965 81.626 17 17.012a4 4 0 1 0 5.659-5.66l-17-17a4 4 0 0 0 -5.659 5.652z"/><path d="m146.82 169h-24.049a4 4 0 0 0 0 8h24.049a4 4 0 0 0 0-8z"/><path d="m158.965 264.389a4 4 0 1 0 5.66 5.645l17-17a4 4 0 0 0 -5.66-5.659z"/><path d="m330.376 253.037 17 17a4 4 0 0 0 5.659-5.645l-17-17.011a4 4 0 1 0 -5.652 5.659z"/><path d="m389.226 169h-24.049a4 4 0 0 0 0 8h24.049a4 4 0 0 0 0-8z"/><path d="m353.032 81.626a4 4 0 0 0 -5.659-5.652l-17 17a4.005 4.005 0 0 0 0 5.662 4.011 4.011 0 0 0 5.649 0z"/><path d="m256 83.075a89.942 89.942 0 0 0 -49.718 164.888 10.232 10.232 0 0 1 4.722 8.81v26.1a23.164 23.164 0 0 0 23.136 23.127h43.724a23.163 23.163 0 0 0 23.128-23.128v-26.1a10.245 10.245 0 0 1 4.723-8.817 89.935 89.935 0 0 0 -49.715-164.88z"/><path d="m128.873 222.223a4 4 0 0 0 -4-4h-118.873a4 4 0 0 0 -4 4v44.5a4 4 0 0 0 3.168 3.9l55.661 11.861.35 1.112a202.562 202.562 0 0 0 13.675 32.968l.546 1.036-30.991 47.758a4.009 4.009 0 0 0 .522 5.007l62.922 62.921a4 4 0 0 0 5.007.537l47.753-30.985 1.035.54a203.768 203.768 0 0 0 32.984 13.683l1.112.35 11.856 55.646a4.006 4.006 0 0 0 3.91 3.168h88.985a4.007 4.007 0 0 0 3.917-3.168l11.849-55.657 1.112-.35a202.934 202.934 0 0 0 32.983-13.675l1.035-.54 47.747 30.985a4 4 0 0 0 5.006-.537l62.922-62.921a4.007 4.007 0 0 0 .522-5.007l-30.988-47.755.54-1.034a203.379 203.379 0 0 0 13.686-32.966l.35-1.113 55.653-11.86a4 4 0 0 0 3.168-3.9v-44.5a4 4 0 0 0 -4-4h-118.865a4 4 0 0 0 -4 4 127.129 127.129 0 0 1 -254.258 0z"/></g><path d="m256 69.83a6 6 0 0 1 -6-5.994v-24.056a6 6 0 0 1 12 0v24.056a6 6 0 0 1 -6 5.994zm-98.449 13.21a6 6 0 0 1 8.488-8.48l17 17a6 6 0 0 1 -8.488 8.487l-17-17.011zm-10.731 83.96a6 6 0 0 1 0 12h-24.048a6 6 0 1 1 0-12zm10.731 95.972 17-17.011a6 6 0 1 1 8.488 8.487l-17 17a6 6 0 0 1 -8.488-8.473zm171.411-8.524a6 6 0 1 1 8.481-8.487l17 17.011a5.985 5.985 0 0 1 0 8.473 5.985 5.985 0 0 1 -8.488 0l-17-17zm60.264-87.448a6 6 0 1 1 0 12h-24.048a6 6 0 1 1 0-12zm-34.779-83.96-17 17.011a6 6 0 1 1 -8.481-8.487l17-17a6 6 0 0 1 8.488 8.48zm-178.385 89.96a79.836 79.836 0 0 0 35.759 66.629 20.283 20.283 0 0 1 8.316 11.139h29.863v-55.045a23.492 23.492 0 1 1 12 0v55.049h29.857a20.316 20.316 0 0 1 8.316-11.139 79.94 79.94 0 1 0 -124.111-66.633zm79.938 11.5a11.5 11.5 0 1 1 11.491-11.5 11.51 11.51 0 0 1 -11.491 11.5zm21.865 111.5h-43.725a13.147 13.147 0 0 1 -13.131-13.132v-20.1h69.98v20.1a13.145 13.145 0 0 1 -13.124 13.132zm-43.725 12h43.725a25.163 25.163 0 0 0 25.127-25.127v-26.1a8.269 8.269 0 0 1 3.83-7.152 91.935 91.935 0 0 0 -50.822-168.546 91.942 91.942 0 0 0 -50.827 168.554 8.231 8.231 0 0 1 3.83 7.144v26.1a25.164 25.164 0 0 0 25.137 25.127zm-222.14-79.776v33.636l53.223 11.34a6.016 6.016 0 0 1 4.508 4.173 193.623 193.623 0 0 0 15.575 37.551 5.989 5.989 0 0 1 -.236 6.138l-29.635 45.672 56.065 56.056 45.66-29.628a6.007 6.007 0 0 1 6.137-.243 193.278 193.278 0 0 0 37.566 15.589 5.994 5.994 0 0 1 4.165 4.5l11.339 53.212h79.273l11.331-53.212a6.006 6.006 0 0 1 4.166-4.508 192.57 192.57 0 0 0 37.573-15.582 5.993 5.993 0 0 1 6.13.243l45.667 29.628 56.056-56.056-29.635-45.682a5.99 5.99 0 0 1 -.236-6.13 193.563 193.563 0 0 0 15.582-37.551 6 6 0 0 1 4.494-4.173l53.232-11.337v-33.636h-107c-3.15 72.838-63.4 131.13-136.995 131.13s-133.846-58.292-137-131.13zm-7.244 44.36 54.515 11.616a204.671 204.671 0 0 0 13.811 33.293l-30.35 46.775a6 6 0 0 0 .785 7.509l62.922 62.923a5.985 5.985 0 0 0 7.509.8l46.775-30.35a205.743 205.743 0 0 0 33.308 13.818l11.61 54.505a6 6 0 0 0 5.865 4.751h88.986a6.009 6.009 0 0 0 5.872-4.751l11.61-54.512a204.934 204.934 0 0 0 33.308-13.811l46.768 30.35a5.982 5.982 0 0 0 7.508-.8l62.922-62.922a6 6 0 0 0 .786-7.509l-30.35-46.775a205.516 205.516 0 0 0 13.818-33.294l54.512-11.617a5.993 5.993 0 0 0 4.754-5.858v-44.5a6 6 0 0 0 -6-6h-118.867a6 6 0 0 0 -6 6 125.129 125.129 0 1 1 -250.257 0 6.005 6.005 0 0 0 -6-6h-118.876a6 6 0 0 0 -6 6v44.5a5.993 5.993 0 0 0 4.752 5.859z" fill="#2e58ff"/></g></svg>