<svg id="Layer_1" height="512" viewBox="0 0 512 512" width="512" xmlns="http://www.w3.org/2000/svg" data-name="Layer 1"><g fill-rule="evenodd"><path d="m353.248 25.718h-49.392l-6.808-20.958a3.967 3.967 0 0 0 -3.799-2.76h-74.489a3.984 3.984 0 0 0 -3.814 2.762l-6.807 20.958h-49.393a4.023 4.023 0 0 0 -4 4v13.288h-75.168a18.379 18.379 0 0 0 -18.341 18.362v430.313a18.319 18.319 0 0 0 18.341 18.291h352.839a18.314 18.314 0 0 0 18.34-18.291v-430.313a18.375 18.375 0 0 0 -18.34-18.362h-75.167v-13.288a4.024 4.024 0 0 0 -4.002-4.002z" fill="#d1e7ff"/><path d="m278.11 202.617 13.346-13.361-13.346-13.356a6.006 6.006 0 0 1 0-8.5 6.1 6.1 0 0 1 8.48 0l13.346 13.36 13.353-13.36a6.1 6.1 0 0 1 8.481 0 6.006 6.006 0 0 1 0 8.5l-13.353 13.36 13.353 13.361a6 6 0 0 1 -8.481 8.5l-13.353-13.36-13.346 13.36a6 6 0 0 1 -8.48-8.5zm-45.81 147.819-13.347 13.364 13.346 13.36a5.932 5.932 0 0 1 0 8.43 5.933 5.933 0 0 1 -8.488 0l-13.346-13.36-13.345 13.36a5.941 5.941 0 0 1 -8.5 0 5.944 5.944 0 0 1 0-8.43l13.353-13.36-13.353-13.361a6.009 6.009 0 0 1 8.5-8.5l13.345 13.36 13.346-13.36a6.007 6.007 0 0 1 8.488 8.5zm109.4-51.436-13.339 13.36 13.339 13.36a6 6 0 0 1 -8.473 8.5l-13.354-13.36-13.353 13.36a6 6 0 0 1 -8.48-8.5l13.353-13.36-13.357-13.36a6.033 6.033 0 0 1 0-8.5 6.1 6.1 0 0 1 8.48 0l13.353 13.36 13.354-13.36a6.091 6.091 0 0 1 8.473 0 6.008 6.008 0 0 1 0 8.5zm-163.178-67.877v-19.862l17.2 9.931zm27.85-17.647-26.5-15.289a8.991 8.991 0 0 0 -8.9 0 8.866 8.866 0 0 0 -4.451 7.716v30.578a8.7 8.7 0 0 0 4.451 7.716 8.76 8.76 0 0 0 8.9 0l26.5-15.289a8.921 8.921 0 0 0 0-15.432zm-61.75-21.648v58.8h79.1v-58.8zm-12-.286v59.371a11.681 11.681 0 0 0 11.695 11.646h79.7a11.684 11.684 0 0 0 11.709-11.646v-59.371a11.745 11.745 0 0 0 -11.709-11.717h-79.7a11.742 11.742 0 0 0 -11.695 11.717zm25.942 143.677a13.932 13.932 0 1 1 13.924-13.932 13.924 13.924 0 0 1 -13.924 13.932zm0-39.867a25.935 25.935 0 1 0 25.22 31.936h65.086a27.051 27.051 0 0 0 27-27.006v-49.369a15.012 15.012 0 0 1 15.011-15h68.019l-14.011 14a6 6 0 0 0 8.481 8.5l24.249-24.291a5.923 5.923 0 0 0 0-8.431l-24.249-24.291a6 6 0 0 0 -8.481 8.5l14.011 14h-68.023a27.012 27.012 0 0 0 -27.006 27.006v49.369a15.01 15.01 0 0 1 -15 15h-65.09a25.959 25.959 0 0 0 -25.22-19.933zm97.436-241.984a9.824 9.824 0 1 1 9.853-9.86 9.862 9.862 0 0 1 -9.853 9.86zm0-31.651a21.827 21.827 0 1 0 21.848 21.791 21.851 21.851 0 0 0 -21.848-21.791zm176.417 31.293h-73.167v26.29h49.268a5.979 5.979 0 0 1 6 6v382.449a5.979 5.979 0 0 1 -6 6h-305.027a5.969 5.969 0 0 1 -6-6v-382.449a5.969 5.969 0 0 1 6-6h49.254v-26.29h-73.167a8.38 8.38 0 0 0 -8.338 8.359v430.314a8.318 8.318 0 0 0 8.338 8.288h352.839a8.324 8.324 0 0 0 8.345-8.288v-430.314a8.386 8.386 0 0 0 -8.345-8.359zm-267.669-17.289v60.871h182.5v-60.871h-46.3a6.045 6.045 0 0 1 -5.7-4.144l-6.357-19.577h-65.78l-6.351 19.577a6.067 6.067 0 0 1 -5.709 4.144zm-6 72.874a6.023 6.023 0 0 1 -6-6v-11.29h-43.26v370.443h293.029v-370.443h-43.267v11.288a6.024 6.024 0 0 1 -6 6zm194.5-84.877h-47.939l-6.359-19.576a5.95 5.95 0 0 0 -5.701-4.142h-74.489a5.969 5.969 0 0 0 -5.715 4.144l-6.359 19.576h-47.94a6.023 6.023 0 0 0 -6 6v11.288h-73.168a20.38 20.38 0 0 0 -20.34 20.361v430.314a20.319 20.319 0 0 0 20.34 20.291h352.839a20.315 20.315 0 0 0 20.34-20.291v-430.314a20.375 20.375 0 0 0 -20.34-20.361h-73.167v-11.289a6.023 6.023 0 0 0 -6.002-6.001z" fill="#2e58ff"/></g></svg>